<?xml version="1.0" encoding="UTF-8" standalone="no"?>
<!-- Created with Inkscape (http://www.inkscape.org/) -->

<svg
   xmlns:dc="http://purl.org/dc/elements/1.1/"
   xmlns:cc="http://creativecommons.org/ns#"
   xmlns:rdf="http://www.w3.org/1999/02/22-rdf-syntax-ns#"
   xmlns:svg="http://www.w3.org/2000/svg"
   xmlns="http://www.w3.org/2000/svg"
   xmlns:sodipodi="http://sodipodi.sourceforge.net/DTD/sodipodi-0.dtd"
   xmlns:inkscape="http://www.inkscape.org/namespaces/inkscape"
   width="765"
   height="765"
   id="svg2"
   version="1.1"
   inkscape:version="0.48.5 r10040"
   sodipodi:docname="kartulita.svg"
   inkscape:export-filename="/home/mark/Pictures/kartulita.png"
   inkscape:export-xdpi="90"
   inkscape:export-ydpi="90">
  <defs
     id="defs4" />
  <sodipodi:namedview
     id="base"
     pagecolor="#ffffff"
     bordercolor="#666666"
     borderopacity="1.0"
     inkscape:pageopacity="0.0"
     inkscape:pageshadow="2"
     inkscape:zoom="0.58235431"
     inkscape:cx="411.82671"
     inkscape:cy="355.11615"
     inkscape:document-units="px"
     inkscape:current-layer="layer1"
     showgrid="false"
     fit-margin-top="0"
     fit-margin-left="0"
     fit-margin-right="0"
     fit-margin-bottom="0"
     inkscape:window-width="1366"
     inkscape:window-height="737"
     inkscape:window-x="-3"
     inkscape:window-y="0"
     inkscape:window-maximized="1" />
  <metadata
     id="metadata7">
    <rdf:RDF>
      <cc:Work
         rdf:about="">
        <dc:format>image/svg+xml</dc:format>
        <dc:type
           rdf:resource="http://purl.org/dc/dcmitype/StillImage" />
        <dc:title></dc:title>
      </cc:Work>
    </rdf:RDF>
  </metadata>
  <g
     inkscape:label="Kartul"
     inkscape:groupmode="layer"
     id="layer1"
     transform="translate(0.37184356,-129.73404)">
    <g
       id="g3794">
      <path
         sodipodi:nodetypes="sssssssssscss"
         inkscape:connector-curvature="0"
         id="path2985"
         d="m 340,292.36218 c -33.10557,6.14883 -69.79605,20.62019 -88.57143,48.57143 -18.70766,27.85044 -1.87595,67.83836 -11.42857,100 -7.27617,24.49732 -33.53506,43.02739 -34.28571,68.57143 -0.8522,28.99995 20.28603,36.81596 22.85714,65.71429 2.39114,26.8755 0.67975,71.64887 8.57143,91.42856 17.92994,44.93952 86.54737,54.97722 134.28572,62.85715 68.94867,11.38101 133.72426,5.47675 174.28571,-51.42857 19.90816,-27.92996 -10.54607,-78.79121 -10e-6,-111.42858 6.2669,-19.39447 19.67848,-66.05881 5.71429,-108.57142 C 538.27318,418.02618 551.21868,419.5075 497.14286,372.36218 476.92914,353.25455 469.84561,320.48175 445.71429,306.6479 414.86551,288.96311 374.96049,285.86883 340,292.36218 z"
         style="fill:#b67846;fill-opacity:1;stroke:#000000;stroke-width:8;stroke-linecap:round;stroke-linejoin:round;stroke-miterlimit:4;stroke-opacity:1;stroke-dasharray:none" />
      <path
         sodipodi:nodetypes="cscsc"
         inkscape:connector-curvature="0"
         id="path3755"
         d="m 484.37538,423.62736 c 0,0 -20.04527,16.03609 -31.50431,21.27785 -20.0798,9.18518 -63.77861,17.14193 -63.77861,17.14193 0,0 15.64333,14.14299 50.08612,10.34619 29.76609,-3.28126 14.29285,-27.60499 14.29285,-27.60499"
         style="fill:#000000;fill-opacity:1;stroke:#000000;stroke-width:8.98877525;stroke-linecap:round;stroke-linejoin:round;stroke-miterlimit:4;stroke-opacity:1;stroke-dasharray:none" />
      <path
         sodipodi:nodetypes="cscsc"
         inkscape:connector-curvature="0"
         id="path3759"
         d="m 228.57505,446.30819 c 0,0 33.53063,14.74977 51.44749,17.14917 19.15159,2.56473 57.11671,3.63992 57.11671,3.63992 0,0 -22.30418,21.82709 -39.96755,23.15565 -23.71822,1.78396 -16.83905,-26.17535 -16.83905,-26.17535"
         style="fill:#000000;fill-opacity:1;stroke:#000000;stroke-width:8;stroke-linecap:butt;stroke-linejoin:miter;stroke-miterlimit:4;stroke-opacity:1;stroke-dasharray:none" />
      <path
         sodipodi:nodetypes="cscc"
         inkscape:connector-curvature="0"
         id="path3761"
         d="m 318.34395,597.68344 c 0,0 28.94258,-17.88703 45.20473,-18.41675 19.40266,-0.63203 55.25023,18.41675 55.25023,18.41675 l 0,0"
         style="fill:none;stroke:#000000;stroke-width:8;stroke-linecap:butt;stroke-linejoin:miter;stroke-miterlimit:4;stroke-opacity:1;stroke-dasharray:none" />
      <path
         sodipodi:nodetypes="csssscssssssc"
         inkscape:connector-curvature="0"
         id="path3763"
         d="m 457.14286,323.79076 c 0,0 46.58285,96.41099 54.28571,148.57142 4.87768,33.02949 -3.52863,66.68391 -5.71429,100 -1.68795,25.72943 5.96605,54.15542 -5.71428,77.14286 -11.32433,22.28683 -33.54906,40.3085 -57.14286,48.57143 -58.45304,20.47119 -185.71428,-5.71429 -185.71428,-5.71429 0,0 89.39566,39.10434 137.14285,42.85715 32.62859,2.56453 67.2977,-0.85186 97.14286,-14.28572 21.57205,-9.70998 44.98103,-23.96434 54.28572,-45.71428 12.01036,-28.07451 -7.6789,-60.95619 -5.71429,-91.42858 1.93476,-30.00941 18.08229,-58.51438 17.14286,-88.57142 -0.82987,-26.55147 -7.36365,-53.77639 -20,-77.14286 -13.4697,-24.90745 -80,-94.28571 -80,-94.28571 z"
         style="fill:#512e00;fill-opacity:0.29665073;stroke:none" />
    </g>
  </g>
  <g
     inkscape:groupmode="layer"
     id="layer2"
     inkscape:label="-ita"
     style="display:inline"
     transform="translate(0,-0.31515438)">
    <g
       transform="translate(0.3718431,-129.4189)"
       id="g3801">
      <path
         transform="matrix(1.2453489,0,0,1.2453489,-39.511401,-56.451877)"
         d="m 645.71429,456.64789 c 0,169.63031 -137.51253,307.14285 -307.14285,307.14285 -169.63031,0 -307.142851,-137.51254 -307.142851,-307.14285 0,-169.63032 137.512541,-307.14285 307.142851,-307.14285 169.63032,0 307.14285,137.51253 307.14285,307.14285 z"
         sodipodi:ry="307.14285"
         sodipodi:rx="307.14285"
         sodipodi:cy="456.64789"
         sodipodi:cx="338.57144"
         id="path3765"
         style="fill:#512e00;fill-opacity:0.16746413;stroke:none"
         sodipodi:type="arc" />
      <path
         inkscape:connector-curvature="0"
         d="M 134.80116,782.56824 606.448,273.53476 l 0,0 m 117.91762,238.69931 c 0,189.01254 -153.22492,342.23747 -342.23745,342.23747 -189.01254,0 -342.237478,-153.22493 -342.237478,-342.23747 0,-189.01254 153.224938,-342.23746 342.237478,-342.23746 189.01253,0 342.23745,153.22492 342.23745,342.23746 z"
         style="fill:none;stroke:#ff0000;stroke-width:80.52507019;stroke-linecap:butt;stroke-linejoin:miter;stroke-miterlimit:4;stroke-opacity:0.66985647;stroke-dasharray:none"
         id="path3785" />
    </g>
  </g>
</svg>
